<svg width="21" height="21" fill="none" xmlns="http://www.w3.org/2000/svg"><path fill-rule="evenodd" clip-rule="evenodd" d="M0 10.557C0 16.242 4.608 20.85 10.293 20.85c5.684 0 10.293-4.608 10.293-10.293S15.978.264 10.293.264 0 4.872 0 10.557zm19.3 0a9.006 9.006 0 1 1-18.013 0 9.006 9.006 0 0 1 18.012 0z" fill="#BDBDBD"/><path fill-rule="evenodd" clip-rule="evenodd" d="M15.752 9.893h-4.794l.02-4.746a.638.638 0 0 0-.643-.643.655.655 0 0 0-.65.65l-.02 4.739h-4.83a.647.647 0 0 0-.65.649c.001.359.293.65.652.651H9.66l-.02 4.83a.64.64 0 0 0 .643.644.654.654 0 0 0 .65-.65l.02-4.824h4.8c.36.001.65-.29.65-.65a.653.653 0 0 0-.651-.65z" fill="#BDBDBD"/></svg>