<svg width="26" height="25" fill="none" xmlns="http://www.w3.org/2000/svg"><path d="M22.404 15.028H6.012a.97.97 0 0 1-.622-.222.865.865 0 0 1-.308-.554L3.862 4.58v-.025l-.283-2.23H.936a.967.967 0 0 1-.662-.257A.854.854 0 0 1 0 1.445C0 1.212.099.988.274.823A.967.967 0 0 1 .936.565h3.47c.23 0 .45.08.622.222a.87.87 0 0 1 .308.554l.283 2.243h18.535c.137 0 .271.028.395.082a.932.932 0 0 1 .32.23.864.864 0 0 1 .189.336.829.829 0 0 1 .02.38l-1.748 9.685a.87.87 0 0 1-.32.525.973.973 0 0 1-.606.206zm-15.56-1.76h14.77l1.43-7.926H5.84l1.003 7.926z" fill="#7FAA42"/><path d="M22.131 18.885H6.021a.96.96 0 0 1-.632-.236.933.933 0 0 1-.314-.59L4.022 9.33a.923.923 0 0 1 .195-.693.948.948 0 0 1 .637-.353.967.967 0 0 1 .704.196.941.941 0 0 1 .355.63l.952 7.9H22.13a.96.96 0 0 1 .674.274.93.93 0 0 1 0 1.326.96.96 0 0 1-.674.274zm-13.6 5.785c-.496 0-.981-.141-1.394-.406a2.434 2.434 0 0 1-.924-1.082c-.19-.44-.24-.925-.143-1.392.097-.468.336-.898.687-1.235a2.54 2.54 0 0 1 1.284-.66 2.605 2.605 0 0 1 1.45.138c.459.182.85.491 1.126.888.276.396.423.863.423 1.34 0 .638-.265 1.25-.736 1.703a2.564 2.564 0 0 1-1.773.706zm0-3.196a.84.84 0 0 0-.454.132.793.793 0 0 0-.301.352.757.757 0 0 0 .177.856.849.849 0 0 0 .89.17c.15-.06.277-.16.367-.29a.764.764 0 0 0 .138-.435.77.77 0 0 0-.24-.554.835.835 0 0 0-.577-.23v-.001zm11.04 3.196c-.496 0-.981-.141-1.394-.406a2.434 2.434 0 0 1-.924-1.082c-.19-.44-.24-.925-.143-1.392.097-.468.335-.898.687-1.235.35-.337.797-.567 1.284-.66a2.605 2.605 0 0 1 1.45.138c.459.182.85.491 1.126.888.276.396.423.863.423 1.34a2.371 2.371 0 0 1-.736 1.703 2.564 2.564 0 0 1-1.773.706zm0-3.196a.84.84 0 0 0-.454.132.793.793 0 0 0-.301.352.757.757 0 0 0 .177.856.848.848 0 0 0 .89.17.81.81 0 0 0 .367-.29.764.764 0 0 0 .138-.435.77.77 0 0 0-.24-.554.835.835 0 0 0-.577-.23v-.001z" fill="#7FAA42"/></svg>