<svg width="34" height="34" fill="none" xmlns="http://www.w3.org/2000/svg"><path fill-rule="evenodd" clip-rule="evenodd" d="M14.945 22.22c0-1.487-.006-2.973.005-4.458 0-.252-.068-.33-.317-.32-.46.02-.918 0-1.382.01-.187.004-.256-.048-.25-.247.009-.927.009-1.855 0-2.782 0-.178.051-.237.23-.234.472.011.944-.013 1.414.01.273.014.33-.084.324-.336a44.806 44.806 0 0 1 0-2.118c.018-.862.25-1.667.76-2.368.645-.888 1.564-1.294 2.622-1.343 1.085-.05 2.178-.022 3.268-.034.152 0 .197.053.197.201-.005.938-.005 1.876 0 2.814 0 .168-.053.218-.215.215-.524-.008-1.048 0-1.571 0-.698 0-1.115.364-1.158 1.058-.035.556-.01 1.116-.023 1.679-.005.199.113.185.244.185.796 0 1.592.008 2.388-.006.234 0 .31.05.284.297-.1.932-.186 1.866-.265 2.8-.019.21-.114.252-.302.252a70.534 70.534 0 0 0-1.886 0c-.451 0-.407-.067-.407.397 0 2.909-.006 5.818.007 8.73 0 .307-.077.384-.379.378a86.456 86.456 0 0 0-3.237 0c-.304.006-.354-.098-.351-.37.006-1.48 0-2.945 0-4.41z" fill="#555"/></svg>