<svg width="21" height="20" fill="none" xmlns="http://www.w3.org/2000/svg"><path d="M11.169.398c-4.859 0-8.88 3.624-9.438 8.299H0l2.234 2.766 2.234-2.766H2.876c.558-4.066 4.049-7.192 8.293-7.192 4.635 0 8.376 3.707 8.376 8.298 0 4.592-3.741 8.299-8.376 8.299-3.044 0-5.696-1.577-7.148-3.983l-.922.636a9.484 9.484 0 0 0 8.07 4.453c5.25 0 9.493-4.204 9.493-9.405 0-5.2-4.244-9.405-9.493-9.405zm-.559 4.426v5.229l.224.165 2.792 2.213.447.36.698-.858-.447-.36-2.597-2.046V4.824H10.61z" fill="#C4C4C4"/></svg>