<svg width="34" height="34" fill="none" xmlns="http://www.w3.org/2000/svg"><path d="M23.638 28.974H9.362a5.353 5.353 0 0 1-2.037-.381 5.313 5.313 0 0 1-1.735-1.125 5.258 5.258 0 0 1-1.168-1.698A5.22 5.22 0 0 1 4 23.759V9.215a5.22 5.22 0 0 1 .422-2.011A5.259 5.259 0 0 1 5.59 5.506a5.314 5.314 0 0 1 1.735-1.125 5.352 5.352 0 0 1 2.037-.38h14.276a5.353 5.353 0 0 1 2.037.38 5.322 5.322 0 0 1 1.735 1.125 5.259 5.259 0 0 1 1.168 1.698A5.22 5.22 0 0 1 29 9.215v14.57a5.22 5.22 0 0 1-.422 2.011 5.26 5.26 0 0 1-1.168 1.698 5.313 5.313 0 0 1-1.735 1.125 5.353 5.353 0 0 1-2.037.38v-.025zM9.362 6.184a3.167 3.167 0 0 0-2.237.87 3.11 3.11 0 0 0-.967 2.18v14.55a3.11 3.11 0 0 0 .967 2.18c.6.573 1.404.886 2.237.872h14.276a3.167 3.167 0 0 0 2.237-.871 3.11 3.11 0 0 0 .967-2.18V9.215a3.11 3.11 0 0 0-.967-2.18 3.167 3.167 0 0 0-2.237-.87l-14.276.02z" fill="#555"/><path d="M16.5 22.976a6.576 6.576 0 0 1-3.63-1.09 6.486 6.486 0 0 1-2.406-2.906 6.418 6.418 0 0 1-.371-3.74 6.454 6.454 0 0 1 1.787-3.314 6.551 6.551 0 0 1 3.345-1.772 6.589 6.589 0 0 1 3.775.369 6.52 6.52 0 0 1 2.932 2.384 6.43 6.43 0 0 1 1.1 3.596 6.45 6.45 0 0 1-1.915 4.575 6.57 6.57 0 0 1-4.617 1.898zm0-10.814c-.865 0-1.711.254-2.43.73a4.344 4.344 0 0 0-1.612 1.946 4.298 4.298 0 0 0-.249 2.504 4.322 4.322 0 0 0 1.197 2.22 4.389 4.389 0 0 0 2.24 1.186 4.413 4.413 0 0 0 2.528-.246 4.366 4.366 0 0 0 1.964-1.597c.48-.713.737-1.551.737-2.408a4.321 4.321 0 0 0-1.283-3.064 4.402 4.402 0 0 0-3.092-1.271zm8.546-2.465c0 .3-.09.591-.257.84a1.539 1.539 0 0 1-2.347.232 1.509 1.509 0 0 1-.334-1.646c.114-.276.309-.513.559-.68a1.536 1.536 0 0 1 2.262.674 1.5 1.5 0 0 1 .117.58z" fill="#555"/></svg>