<svg width="18" height="20" fill="none" xmlns="http://www.w3.org/2000/svg"><path d="M15.257 0H2.792C2.044 0 1.346.288.822.791A2.618 2.618 0 0 0 0 2.686v14.652C0 18.801 1.247 20 2.767 20h12.465C16.753 20 18 18.801 18 17.338V2.662C18.025 1.175 16.803 0 15.257 0zm1.396 17.314c0 .744-.623 1.343-1.396 1.343H2.792c-.773 0-1.396-.6-1.396-1.343V2.662c0-.744.623-1.343 1.396-1.343h12.465c.773 0 1.396.6 1.396 1.343v14.652z" fill="#C4C4C4"/><path d="M13.409 5.385H7.353a.67.67 0 0 0-.678.664c0 .38.29.664.678.664h6.056a.67.67 0 0 0 .678-.664c0-.38-.29-.664-.678-.664zm0 3.962H7.353a.67.67 0 0 0-.678.665c0 .38.29.664.678.664h6.056a.67.67 0 0 0 .678-.664c0-.38-.29-.665-.678-.665zm0 3.94H7.353a.67.67 0 0 0-.678.664c0 .38.29.664.678.664h6.056a.67.67 0 0 0 .678-.664.67.67 0 0 0-.678-.665zM5.1 5.385h-.509a.67.67 0 0 0-.678.664c0 .38.29.664.678.664H5.1a.67.67 0 0 0 .678-.664.67.67 0 0 0-.678-.664zm0 3.962h-.509a.67.67 0 0 0-.678.665c0 .38.29.664.678.664H5.1a.67.67 0 0 0 .678-.664.67.67 0 0 0-.678-.665zm0 3.94h-.509a.67.67 0 0 0-.678.664c0 .38.29.664.678.664H5.1a.67.67 0 0 0 .678-.664.67.67 0 0 0-.678-.665z" fill="#C4C4C4"/></svg>