<svg width="25" height="25" fill="none" xmlns="http://www.w3.org/2000/svg"><path fill-rule="evenodd" clip-rule="evenodd" d="M6.335 16.321C3.607 14.711 2.344 12.5 2.344 12.5S5.469 7.031 12.5 7.031c1.02 0 1.956.115 2.814.312l-.664.663a11.802 11.802 0 0 0-2.15-.194c-6.25 0-9.219 4.688-9.219 4.688s1.184 1.868 3.63 3.246l-.576.575zm3.351 1.336c.858.197 1.795.312 2.814.312 7.031 0 10.156-5.469 10.156-5.469s-1.263-2.211-3.99-3.821l-.576.575c2.445 1.378 3.629 3.246 3.629 3.246s-2.969 4.688-9.219 4.688c-.766 0-1.482-.07-2.15-.194l-.664.663zm5.86-5.86a3.125 3.125 0 0 1-3.748 3.748l.702-.701c.6 0 1.2-.23 1.657-.687a2.337 2.337 0 0 0 .687-1.657l.702-.702zm-2.344-2.343a3.125 3.125 0 0 0-3.748 3.748l.702-.702c0-.6.23-1.2.687-1.657a2.337 2.337 0 0 1 1.657-.687l.702-.702zM18.75 5.47L5.469 18.75l.781.781L19.531 6.25l-.781-.781z" fill="#878787" opacity=".6"/></svg>