<svg width="19" height="20" fill="none" xmlns="http://www.w3.org/2000/svg"><path d="M5.262 4.565c.66-1.18.283-2.68-.84-3.351-1.123-.67-2.569-.257-3.228.923-.66 1.18-.283 2.681.84 3.352 1.124.67 2.569.256 3.228-.924zm0 13.298c.66-1.18.283-2.681-.84-3.352-1.123-.67-2.569-.256-3.228.924-.66 1.18-.283 2.68.84 3.351 1.124.67 2.569.257 3.228-.923zm12.544-6.65c.66-1.18.283-2.68-.84-3.35-1.124-.671-2.569-.258-3.228.923-.66 1.18-.283 2.68.84 3.35 1.123.671 2.569.258 3.228-.922zM6.181 4.318l6.725 4.727m-7.471 6.302l8.219-3.939" stroke="#C4C4C4" stroke-width="1.5" stroke-linecap="round" stroke-linejoin="round"/></svg>