<svg width="29" height="28" fill="none" xmlns="http://www.w3.org/2000/svg"><path fill-rule="evenodd" clip-rule="evenodd" d="M16.222 17.835a7.639 7.639 0 0 1-4.327 1.327c-4.122 0-7.464-3.21-7.464-7.171 0-3.96 3.342-7.172 7.464-7.172 4.123 0 7.465 3.211 7.465 7.172a6.95 6.95 0 0 1-1.382 4.157l4.905 4.711a1.144 1.144 0 0 1 0 1.668l-.021.02a1.265 1.265 0 0 1-1.736 0l-4.904-4.712zm-4.327-.36c3.153 0 5.708-2.456 5.708-5.484 0-3.029-2.555-5.484-5.708-5.484-3.152 0-5.708 2.455-5.708 5.484 0 3.028 2.556 5.484 5.708 5.484z" fill="#fff"/></svg>