<svg width="17" height="17" fill="none" xmlns="http://www.w3.org/2000/svg"><path d="M8.5 8.174A3.587 3.587 0 1 0 8.5 1a3.587 3.587 0 0 0 0 7.174z" stroke="#C4C4C4" stroke-width="2" stroke-linecap="round" stroke-linejoin="round"/><path d="M1.023 16a7.144 7.144 0 0 1 2.174-5.7A7.628 7.628 0 0 1 8.5 8.174c.985 0 1.96.188 2.87.553.91.364 1.737.9 2.433 1.573a7.248 7.248 0 0 1 1.626 2.356A7.05 7.05 0 0 1 16 15.434v0c0 .189-.008.378-.023.566M1.023 16h14.954H1.023z" stroke="#C4C4C4" stroke-width="2" stroke-linecap="round" stroke-linejoin="round"/></svg>