<svg width="18" height="16" fill="none" xmlns="http://www.w3.org/2000/svg"><path d="M0 13.867c0-.59.474-1.067 1.059-1.067h1.059c.584 0 1.058.478 1.058 1.067v1.066c0 .59-.474 1.067-1.058 1.067h-1.06A1.063 1.063 0 0 1 0 14.933v-1.066zm0-12.8C0 .477.474 0 1.059 0h1.059c.584 0 1.058.478 1.058 1.067v1.066c0 .59-.474 1.067-1.058 1.067h-1.06A1.063 1.063 0 0 1 0 2.133V1.067zm0 6.4C0 6.877.474 6.4 1.059 6.4h1.059c.584 0 1.058.478 1.058 1.067v1.066c0 .59-.474 1.067-1.058 1.067h-1.06A1.063 1.063 0 0 1 0 8.533V7.467zm5.294 6.4c0-.59.474-1.067 1.059-1.067H16.94c.585 0 1.059.478 1.059 1.067v1.066c0 .59-.474 1.067-1.059 1.067H6.353a1.063 1.063 0 0 1-1.059-1.067v-1.066zm0-12.8C5.294.477 5.768 0 6.353 0H16.94C17.526 0 18 .478 18 1.067v1.066c0 .59-.474 1.067-1.059 1.067H6.353a1.063 1.063 0 0 1-1.059-1.067V1.067zm0 6.4c0-.59.474-1.067 1.059-1.067H16.94c.585 0 1.059.478 1.059 1.067v1.066c0 .59-.474 1.067-1.059 1.067H6.353a1.063 1.063 0 0 1-1.059-1.067V7.467z" fill="#C4C4C4"/></svg>