<svg width="34" height="34" fill="none" xmlns="http://www.w3.org/2000/svg"><path d="M23.418 16.886s2.605-3.809 2.863-5.06c.087-.448-.104-.698-.552-.698h-2.26c-.516 0-.707.233-.861.572 0 0-1.222 2.699-2.708 4.4-.477.55-.72.715-.983.715-.212 0-.31-.183-.31-.677v-4.35c0-.608-.07-.787-.552-.787h-3.622c-.276 0-.448.166-.448.393 0 .572.845.702.845 2.253v3.2c0 .645-.034.895-.327.895-.777 0-2.621-2.772-3.656-5.92C10.64 11.18 10.416 11 9.83 11H7.57a.549.549 0 0 0-.57.572c0 .626.707 3.523 3.486 7.404C12.348 21.587 14.797 23 17.005 23c1.345 0 1.67-.233 1.67-.822v-2.004c0-.5.19-.715.466-.715.31 0 .858.103 2.138 1.413C22.797 22.374 22.899 23 23.728 23h2.536c.258 0 .5-.125.5-.572 0-.59-.741-1.646-1.88-2.898-.465-.643-1.224-1.34-1.465-1.662-.346-.375-.242-.59 0-.982z" fill="#555"/></svg>