<svg width="34" height="34" fill="none" xmlns="http://www.w3.org/2000/svg"><path d="M29 16.178c0 6.726-5.494 12.178-12.273 12.178-2.152 0-4.173-.55-5.932-1.515L4 29l2.215-6.534a12.05 12.05 0 0 1-1.76-6.288C4.454 9.452 9.948 4 16.726 4 23.507 4 29 9.452 29 16.178zM16.727 5.94c-5.69 0-10.318 4.594-10.318 10.24 0 2.24.73 4.314 1.965 6.002l-1.289 3.802 3.966-1.26a10.312 10.312 0 0 0 5.676 1.694c5.69 0 10.319-4.593 10.319-10.238 0-5.646-4.63-10.24-10.319-10.24zm6.198 13.044c-.076-.124-.276-.2-.577-.349-.301-.149-1.78-.871-2.055-.97-.276-.1-.477-.15-.678.149-.2.299-.777.97-.952 1.17-.176.2-.351.224-.652.075-.301-.15-1.27-.465-2.42-1.481-.893-.791-1.497-1.768-1.673-2.067-.175-.299-.018-.46.132-.609.136-.134.301-.348.451-.523.151-.174.201-.298.3-.498.102-.199.051-.373-.024-.523-.075-.149-.677-1.618-.928-2.216-.25-.597-.5-.497-.677-.497-.175 0-.376-.025-.576-.025-.2 0-.527.074-.803.373-.275.299-1.052 1.021-1.052 2.49 0 1.469 1.077 2.888 1.228 3.087.15.198 2.08 3.31 5.14 4.506 3.058 1.195 3.058.796 3.61.746.55-.05 1.779-.722 2.03-1.419.25-.697.25-1.295.176-1.42z" fill="#555"/></svg>